PathFileType	4	(X/Y/Z)	Patient4_TMGait_0pt2_03_left_06.trc.trc
DataRate	CameraRate	NumFrames	NumMarkers	Units	OrigDataRate	OrigDataStartFrame	OrigNumFrames
47.457627118644	47.457627118644	6	33	mm	47.457627118644	106	       141
Frame#	Time	Sacral			L.Shoulder			Chest			R.Shoulder			Neck			R.ASIS			L.ASIS			R.Thigh.Superior			R.Thigh.Lateral			R.Thigh.Inferior			R.Patella			L.Thigh.Superior			L.Thigh.Lateral			L.Thigh.Inferior			L.Patella			L.Shank.Superior			L.Shank.Lateral			L.Shank.Inferior			R.Shank.Superior			R.Shank.Lateral			R.Shank.Inferior			R.Heel			R.Midfoot.Superior			R.Midfoot.Lateral			R.Toe			L.Heel			L.Midfoot.Lateral			L.Midfoot.Superior			L.Toe			L.Elbow			L.Wrist			R.Elbow			R.Wrist			
		X1	Y1	Z1	X2	Y2	Z2	X3	Y3	Z3	X4	Y4	Z4	X5	Y5	Z5	X6	Y6	Z6	X7	Y7	Z7	X8	Y8	Z8	X9	Y9	Z9	X10	Y10	Z10	X11	Y11	Z11	X12	Y12	Z12	X13	Y13	Z13	X14	Y14	Z14	X15	Y15	Z15	X16	Y16	Z16	X17	Y17	Z17	X18	Y18	Z18	X19	Y19	Z19	X20	Y20	Z20	X21	Y21	Z21	X22	Y22	Z22	X23	Y23	Z23	X24	Y24	Z24	X25	Y25	Z25	X26	Y26	Z26	X27	Y27	Z27	X28	Y28	Z28	X29	Y29	Z29	X30	Y30	Z30	X31	Y31	Z31	X32	Y32	Z32	X33	Y33	Z33	

106	13.902500000000	802.875566226798	980.838340939512	612.601245540659	990.822407161681	1406.178721567639	418.826482604933	1108.020275576258	1320.551446802557	560.306469600050	1060.350218830150	1393.583642307353	744.447673405517	1014.027771581342	1463.089696731712	575.124811377082	1046.636025335002	906.596494151145	697.837326837353	996.442211782009	938.986021990522	429.011952278575	1102.189328341795	720.682165710490	632.476431342146	1047.490469177152	597.863250928671	690.298331186975	1110.592899143880	561.537547840762	589.107467475123	1120.376405113573	461.825315597840	585.858295624828	1094.398746083946	771.044411034458	449.919903943081	1058.403679947393	644.415863060880	363.507525195678	1165.028971815841	585.886711551766	424.768338454737	1183.225335997661	497.591585500159	407.858965951447	1118.927667110812	429.559576541348	386.291445419647	982.140447367787	390.671177836920	322.580965571730	971.736379559741	255.172378589605	358.579428437564	1067.823611039594	374.980532890579	597.777423993117	990.622826220173	287.724181803710	678.751426257549	983.599931009456	192.416127088406	607.430704030102	811.021284600554	48.440891122266	618.100721855690	987.835293340632	96.218920636700	610.075616630613	909.295830171974	39.071454002603	669.174388592008	1109.144754086176	39.110389505051	608.655873687531	783.256292844324	174.148839156894	374.302523567368	847.424998784137	148.548032799725	290.316859067231	950.301014174555	161.687733473662	318.833694741153	1039.742807853599	63.751560574756	274.739904742643	850.066465587808	1083.714714404383	309.158264581907	830.486006481789	825.306490591952	327.825967517416	1232.041883290504	1096.897445922476	822.768951604725	1409.795598965756	1229.651961856796	711.159051712129	
107	13.923571428571	802.729886773187	981.133099439542	614.121558488371	986.666587870664	1407.993720948564	420.640538884071	1106.172385736297	1322.194303429432	560.029355479385	1060.711038990282	1393.829421749214	745.062658632487	1011.494365670524	1464.018167635222	576.990092265774	1047.098188913998	906.746299983669	696.504900375519	994.337361333136	940.614335777679	428.245693340213	1100.877945138126	720.174724121709	630.940465698521	1046.149568947331	597.718277813384	689.440218826650	1108.400539204878	561.005642003019	587.913854791771	1117.649016991384	461.239892028715	584.885002423355	1091.904146451190	772.072057048149	447.451128608073	1054.941697227929	645.354268504472	361.306489205075	1161.625589586636	586.814783117780	421.782074570286	1180.767404442367	499.894990182647	405.332478772820	1119.473495454540	430.931440175124	383.546576315890	985.742145316797	385.511038869940	319.093965045464	982.435754899269	249.783887994327	354.711689516239	1064.757628102005	374.662241247435	597.131519659490	987.342203338584	287.830873945854	678.325529905967	979.982945744903	192.451574161194	607.195847061343	806.857520560298	48.846029936996	618.146384320085	983.825236358533	96.258377768084	610.032490016312	905.133537553901	39.257471679121	669.173166297847	1104.932821627504	38.980894611462	608.668592433276	799.258797897570	159.258895819638	369.680278083092	864.729422788822	137.300377041417	285.823421179104	966.298784398199	155.485154152923	314.691509336903	1060.429758540504	62.782972066854	270.725941044015	842.601455740809	1086.813668370170	313.747962985315	816.961616384151	829.095386537124	337.526965312268	1242.038301543890	1103.531918664629	818.751595017404	1411.876029175221	1244.945231281635	705.935747940718	
108	13.944642857143	802.498891676013	982.165536747361	615.364328176932	982.716846554714	1410.240364981258	422.103560085728	1104.443691132301	1324.258732125441	559.400554118230	1061.338030308047	1394.697538540501	745.267629611109	1009.280773976953	1465.439941803821	578.434272090018	1047.360552378486	907.370516399481	694.849596794683	992.051984110449	942.765670909376	427.168023532704	1098.872566251577	719.962925087982	629.304331607012	1043.886162386940	598.021191786038	688.706871230273	1105.140468252048	560.692282038502	586.894501701472	1113.700510773738	461.041783116141	584.162515217716	1088.774026611574	773.234863325862	444.525801986628	1050.332734971298	646.441815375941	358.668920468512	1156.992269628353	587.712893854307	418.272847148465	1177.059722592391	502.438177102150	402.400208432383	1119.270854469954	432.517949430474	380.559690652387	989.462318353531	379.571865184278	315.153708357970	994.230806223248	243.929765222842	350.714436885140	1060.723810378922	374.709950400631	596.716825424996	983.364984383076	288.054104196569	678.078392045358	975.956774141879	192.624467908132	607.071483200827	802.624209436371	49.100730571058	618.213971732982	979.756711316592	96.281092678225	610.011868879159	900.930478263723	39.376979942474	669.208175545927	1100.679595861902	38.911414462839	608.676232146550	817.457778783950	142.778980230094	364.700911510446	884.488160882029	124.762316331798	281.261088821754	984.298142260983	148.750670817636	310.674168380958	1083.664603177024	62.042771948646	267.482971305219	835.052965794578	1090.358115566038	318.586482300608	803.893416232094	833.428756834766	348.139526029108	1251.627025343330	1111.035307927814	814.685900640236	1413.786613753090	1260.084329983995	700.806685865632	
109	13.965714285714	802.191191072058	983.814735396236	616.302370257015	978.958101107784	1412.829181584657	423.178497722530	1102.802926552794	1326.662553582511	558.406567008342	1062.153908938282	1396.095584891905	745.043202002182	1007.338828083318	1467.273665539985	579.427901653365	1047.440910015220	908.408172207390	692.918351389690	989.671825362629	945.328809778928	425.815248638964	1096.256153513011	719.999769660041	627.613550545639	1040.787585897993	598.705334823921	688.105828552248	1100.918844376398	560.560396198644	586.060672173370	1108.644262033715	461.185422427719	583.680167533038	1085.168124218115	774.478507594227	441.341478029264	1044.912198072196	647.632188798644	355.782852878210	1151.442243802405	588.569148345976	414.521417591637	1172.399344822796	505.149936492715	399.333718253761	1118.489832426399	434.304208842517	377.582488316247	993.425442523945	373.258313398556	310.995221920193	1006.804261865574	238.114350151849	346.876034854196	1055.819390115085	375.072466666367	596.515994702038	978.765126007363	288.353071953043	677.994919586795	971.550709914526	192.897627526587	607.040218264230	798.322322471488	49.184774063305	618.299513320643	975.619428359759	96.282284718306	610.010520693895	896.685604063759	39.421386006481	669.277996188686	1096.387101078022	38.898740543507	608.679011663437	837.326881723249	125.812342861687	359.629919598890	906.126211422310	111.870994300821	276.920636345016	1003.719623975516	142.115038406367	307.094899278025	1108.568898007535	61.921760552756	265.362125315958	827.326747464484	1094.339172587512	323.542627806868	791.316282168770	838.341480779727	359.407808424794	1260.705171560352	1119.207898437651	810.557723057948	1415.476425115433	1274.997438698089	695.725000788445	
110	13.986785714286	801.831136783561	985.935583136468	616.913018840508	975.369673626174	1415.652714357821	423.833558972280	1101.221703331080	1329.311877511732	557.037838017149	1063.080741906204	1397.913406398955	744.375414943289	1005.608064722549	1469.421277245635	579.948315674084	1047.369017411763	909.781672914461	690.759317065518	987.289318602960	948.175844805730	424.224292062716	1093.133424870047	720.226809745431	625.910501202479	1036.968651031610	599.694706455993	687.636770573152	1095.873801504072	560.568211813008	585.415360324937	1102.630299046492	461.615655444526	583.419025565931	1081.255911690152	775.733378008873	438.074466198510	1038.998487301623	648.862312094976	352.825434867598	1145.286023386777	589.355959796230	410.772425409412	1167.069371701776	507.935609999688	396.375367871675	1117.275909922827	436.248335848435	374.834479183009	997.673742966195	366.937472500077	306.856012794122	1019.771283689494	232.764534165361	343.458308365727	1050.171704464687	375.690064554145	596.503248275065	973.638917071751	288.691061518479	678.055496286632	966.810415823136	193.235789835340	607.083109044797	793.958941760338	49.094803022367	618.399299652872	971.407965668508	96.260605176195	610.026011084323	892.401533717606	39.389215189230	669.379225435872	1092.060087770813	38.936958108897	608.677323046339	858.228479360596	109.357096828185	354.750236813531	928.948554252038	99.455060414214	273.081329654254	1023.903797684364	136.103489540623	304.222340613229	1134.198798447213	62.687799108336	264.615762723206	819.416808542772	1098.697706186793	328.466052995972	779.276500693825	843.803770102930	371.027326286748	1269.184661979119	1127.825523389437	806.328568640350	1416.889163512602	1289.580983488234	690.634033948015	
111	14.007857142857	801.453504649109	988.373015672817	617.177974651784	971.930819600012	1418.594161233724	424.043356116127	1099.678542972178	1332.109114024499	555.289921674168	1064.045367064775	1400.033784445290	743.256876418865	1004.022942759064	1471.776021015280	579.980687166108	1047.183292366392	911.404888757054	688.420478365639	984.997118184217	951.169255140785	422.430498013215	1089.626075188565	720.581793435027	624.234865666731	1032.565723504047	600.911302067235	687.293033934884	1090.170905353551	560.674115110917	584.956363672868	1095.840897939411	462.272163072376	583.357315076151	1077.209887199862	776.921208903018	434.868447066464	1032.878722702062	650.056683029485	349.949825072112	1138.817283566067	590.032076003969	407.218738647366	1161.325395166132	510.680898387026	393.715395380531	1115.743057069774	438.280817540259	372.481606464319	1002.151528361537	360.903807668782	302.970285066045	1032.705885004785	228.185184278484	340.678730846170	1043.933042293032	376.499442649629	596.649426782995	968.100076416620	289.039617049340	678.239953225264	961.795997237580	193.609230125682	607.183557681294	789.546745904943	48.846150352619	618.510704668802	967.123213993157	96.218557762847	610.057553484381	888.084320893592	39.286410914223	669.506695478794	1087.705785218189	39.017412332019	608.671739503564	879.455939231612	94.215683920098	350.363865980097	952.173504225936	88.155654082956	270.000792304875	1044.152324411194	131.078522867088	302.259077345837	1159.605366416454	64.442056567649	265.356213291833	811.396491998230	1103.327539432496	333.200269181477	767.821610991026	849.719383820933	382.657343639312	1276.995507345723	1136.658239152121	801.944640049804	1417.971692029654	1303.711596638116	685.472732482554	
